<mxfile host="app.diagrams.net" modified="2022-08-20T04:30:18.625Z" agent="5.0 (Windows NT 10.0; Win64; x64) AppleWebKit/537.36 (KHTML, like Gecko) Chrome/104.0.0.0 Safari/537.36" etag="sNoERrA8ErtKCgliVPor" version="20.2.5" type="github">
  <diagram id="3ut9zB9vSexSGTmXkX33" name="第 1 页">
    <mxGraphModel dx="1422" dy="754" grid="1" gridSize="10" guides="1" tooltips="1" connect="1" arrows="1" fold="1" page="1" pageScale="1" pageWidth="827" pageHeight="1169" math="0" shadow="0">
      <root>
        <mxCell id="0" />
        <mxCell id="1" parent="0" />
        <mxCell id="ERzx5zdSfBYOt2s1mhw1-1" value="&lt;font style=&quot;font-size: 100px;&quot;&gt;V&lt;/font&gt;" style="text;html=1;strokeColor=none;fillColor=none;align=center;verticalAlign=middle;whiteSpace=wrap;rounded=0;fontStyle=2;fontSize=32;fontColor=#CC0000;" vertex="1" parent="1">
          <mxGeometry x="306" y="420" width="60" height="30" as="geometry" />
        </mxCell>
        <mxCell id="ERzx5zdSfBYOt2s1mhw1-2" value="&lt;font style=&quot;font-size: 100px;&quot;&gt;S&lt;/font&gt;" style="text;html=1;strokeColor=none;fillColor=none;align=center;verticalAlign=middle;whiteSpace=wrap;rounded=0;fontSize=48;fontColor=#6666FF;" vertex="1" parent="1">
          <mxGeometry x="380" y="420" width="60" height="30" as="geometry" />
        </mxCell>
        <mxCell id="ERzx5zdSfBYOt2s1mhw1-3" value="" style="shape=image;verticalLabelPosition=bottom;labelBackgroundColor=default;verticalAlign=top;aspect=fixed;imageAspect=0;image=data:image/png,iVBORw0KGgoAAAANSUhEUgAAAgAAAAIACAMAAADDpiTIAAACi1BMVEUAAAD/AADYFy7cGTLaGjPaGTLaGjLZGjHaGjPZGjLZGzPbGzPZGzHbGy7/AFXcGTLaGjLaGjLaGjLaGjLaGjLbGjLaGjLaGTPcFzT/AADbGDHbGjPbGjLaGjLaGjHaGjPbGjHfIDDbJCTbGjLaGjLaGjLaGjLMMzPbGzLaGjHZGjLaGzPcFy7aGjLaGjHfFTXRFy7aGjLbGjLfIEDaGjLaGjLZGDHZHC/aGjLaGTPYGzLaGjLaGjTaGjLaGjLhHi3aGTHZGjLYFDvaGjPaGjLaFzXaGjLaGzLcHDLaGjLaGjLZGjPaGjLaGjPdGjPZGjPaGjLaGjPVHDnaGzLaGjLbGTPaGTLbGjHbGTLbGC/aGjLaGjLaGjLaGjK/AEDZGzHWGTHbGjLZHDTbGDHZGjLbGjLYGjTaGzLbGzLaGjLZGzHbGjHaGzLaGjLZGjHaGzLaGTHmGjPVKyvbGjPZGjHaGTHZGjLaGjLbGjPaGTLaGjHZGjPbGjHaGjLaGzLZGjLaGjLbGDHZGTLZGjPZGjLbGzHaGTPjHDnZGzHbGTLaGjPYHTHaGjHbGjPaGzHbGzHbGjDaGTHcGzPaGjLaGzPaGzHaGjLZGzLaGjLaGjLZGjLbGTLaGzLZGjLaGjLaGjLaGzLaGjLbGjPaGjLZGzLaGjLaGjPaGjLbEjfZGzPXGzbbGzLaGzLZGTPaGzLbGjLaGjPXHDPbGTPdIjPaGjLaGTPaGjLaGTLaGjLZGTLbHDTaGjLbGjLbGjHZGTLYHDLbGjHaHDPZGDDaGjLZGTLcGjDaGjHeFjfWHzPaGjHaGjLcGjXaGjLXGDDaGzLVFSvZGjLaGzLaGjLaGjHaGjHaGjLbGTHbGzPaGjLtWMP7AAAA2HRSTlMAAiFIWmZ2gYiAc1VDHAMzdarQ9/LLpG8sARVqr+7opmIQB035+LMFhe3nfRbxkRgL9H8I39xJG7SrQulF/fwRv7cNz8wi290k6uYo4uMeFNfUEsrCoZhjWyv189XNBHIfqEo/xb07wDj+L5uQ71hMtQoGRofJvvsyKVlQd57T4PYqUbCVOZcJXnB0Grp4fFRPPkH6S2ifo+G8V1ytbNq5rJ1+p6LB3rEOXxO2e3lglJItjQ+Lg65Sxo5A69LEei5ONzW4PTqlFxltxx3sII8MqZnlRJbYXWnMCJF5AAAJ9klEQVR42u3di2PVdRnH8S/U0kUcJIhtyAgm28IN2JoKhkOuIyQDAzJAUBKhiZMY2UzI0RBBLa3wRmIoKhHdQCxRKrK0orIbCr8/x8NFGLKxC+f8Pl/4vF9/wXOe5812ds52CAEAAADoTJ++H/t4wScuuxyRK/xkQb9P9c/p7TMDrhj46UEJLiKDPzOkqLgkF9cfeuWwUvWjQe8M/+yIkRd2/bKrBo5SPwpciPKKfpW9/8f/udHq+XHhrq7q3ZeB6sIx6tGRG4PHjuvx+WsuL1ePjdyp/Xxdz+5/1TXqkZFb117Xg/OPn6AeF7l3fXV37/+Fq9WzIh8m3tCt82cK69WTIj8mFWa6vv+Nk9VjIn+mTO3q/uOmqWdEPk3v4onAjAb1hMivmV883/2LZ6nnQ77dNLvz+/f/kno65N/NX+7s/nPmqmdDGm75Ssf3r5mnngzpmN/x68IL1HMhLV/t6P63qqdCer527v0XLlIPhfQsPudHgbLb1DMhTUuWfiSAKvVESNftZ9//jlr1QEjX4PFnBVChngdpW9b+/l9XT4P03dkugOXqYZC+u87c/wb1LFBYcTqAlepRoDDhw/t/Qz0JJBrvPhXAKvUk0Ljn5P3rmtSDQGPWyT8bvFc9B1RWnwjgm+oxoDLw+P3X8EeAtmqbswGsVU8BneMvBXxLPQR0qrIB3KceAjrfDqGmRT0EdMqbw/3qGaD0nfCAegQorQuF6hGgtD4sU48Ape/yuyDeJocH1SNAaUloVY8ApYbAh4FaGx74LGBrG4J6AmgRgDkCMEcA5gjAHAGYIwBzBGCOAMwRgDkCMEcA5gjAHAGYIwBzBGCOAMwRgDkCMEcA5gjAHAGYIwBzBGCOAMwRgDkCMEcA5gjAHAGYIwBzBGCOAMwRgDkCMEcA5gjAHAGYIwBzBGCOAMwRgDkCMEcA5gjAHAGYIwBzBGCOAMwRgDkCMEcA5gjAHAGYIwBzBGCOAMwRgDkCMEcA5gjAHAGYIwBzBGCOAMwRgDkCMEcA5iIJoHTY+nXfq64JFmqqF7at39ik3vlJMQQw+qFNGfVR0pdZ8XCpevNJDAG0Fm1W30KleUuDevvyAMY8slR9BqXKRxd7BzDlMfUJ1Pp/3ziAlh+UqPev1+fxSa4BlD+hXn4cfrjBM4DaH6k3H4sfL3IMYOt16r3H48kWwwBGqLcek6f8AnhavfO4POMWwMwa9crjMvVZswBWqzcemzavACrU+46P6AUhUQCb1OuOzyanALaptx2jlUYB/ES97Bg95xPAGNs3gM+nRvLGoCSAZepdx2m7TQAF6lXH6XmbAGarVx2nYpcARln/ElDnKreaBHCbetOx+qlJADvUi47VXSYBvKBedKw2mgSwQL3oWCneE1YE8KJ60bF6mgC8EYA5AjBHAOYIwBwBmCMAcwRgjgDMEYA5AjBHAOYIwBwBmCMAcwRgjgDMSQKYkb6h6kXHaqjgGOrHDAAAAAAAAAAAAAAAAAAAAAAAAAAAAAAAumF6+naqH3OsdgqOwUfERORFxUfEEEA8CMAcAZgjAHMEYI4AzBGAOQIwRwDmCMAcAZgjAHMEYI4AzBGAOQIwRwDmCMAcAZgjAHMEYI4AzBGAOQIwRwDmCMAcAZgjAHMEYI4AzBGAOQIwRwDmCMAcAZgjAHMEYI4AzBGAOQIwRwDmCMAcAZgjAHMEYI4AzBGAOQIwRwDmCMAcAZgjAHMEYI4AzBGAOQIwRwDmCMAcAZgjAHMEYI4AzBGAOQIwRwDmCMAcAZgjAHMEYI4AzBGAOQIwRwDmCMAcAZgjAHMEYI4AzBGAOQIwRwDmCMAcAZgjAHMEYI4AzBGAOQIwRwDmCMAcAZgjAHMEYI4AzBGAOQIwRwDmCMAcAZgjAHMEYI4AzBGAOQIwRwDmCMAcAZgjAHMEYI4AzBGAOQIwRwDmJAFMT99O9aJjtVNwDPVjBgAAAAAAAAAAAAAAAAAAAAAAAAAAAAAA3TAgfX3VjzlWQ2ekT/ERMc+oFx0rl88IIoBOEIA5AjBHAOYIwBwBmCMAcwRgjgDMEYA5AjBHAOYIwBwBmCMAcwRgjgDMuQTwknrRsXrZJIAK9aJjNcwkgFfUi47VNpMAdqkXHasGkwDqN6s3HafmFpMAkgHqVcfpbsUtJAHcrl51nB6xCWCCetVx+plNAINGqncdo92LbAJICtTLjtGtklNoAuD/rO7AfUYBJGvV247PWs0lRAEsL1HvOzYly60CSH6uXnhstogOoQpg4hz1xuOyZ7hZAMkv+qh3HpOSjao7yAJIfqleekx+JTuDLoDGEeqtx+OBesMAkq1PqPcei7atuisIA0gmPaXefBx+rXgbOIYAkuQ3Zerl65XtlZ5AG0CyZJ96/2rF07UXEAeQtLy6X30Cpd2vCb/9RxFAkjT91vY1oT2Xlaq3H0EASTLqd69PVd8ifVPbtperN5/EEUBWy4E3Ct7c1/dGC333vVnw6gHlU/92IgkAKgRgjgDMEYA5AjBHAOYIwBwBmCMAcwRgjgDMEYA5AjBHAOYIwBwBmCMAcwRgjgDMEYA5AjBHAOYIwBwBmCMAcwRgjgDMEYA5AjBHAOYIwBwBmCMAcwRgjgDMEYA5AjBHAOYIwBwBmCMAcwRgjgDMEYA5AjBHAOYIwBwBmCMAcwRgjgDMEYA5AjBHAOYIwBwBmCMAcwRgjgDMEYA5AjBHAOYIwBwBmCMAcwRgjgDMEYC5UK6eAEqDwkH1CFCaFa5RjwClmeH36hGgNC38QT0ClOaHIeoRoLQgVKlHgNIfQz/1CFB6PRxSjwClhaFulHoG6JSXhTBfPQR0JocQCtVDQKcqG8Cd6iGgsyIbQHOtegqoLK7MBhCuV48BlWXH7x/+pB4DKk+eCGDpcPUc0Jh44jtACGPVg0DjjZP3D4ca1ZNAobH4VAChQj0KFDZ+eP/wlnoUKPz5dABhm3oWpO8vZ+4f3uZZgJ3Gd9oFEP6qHgdpW9D+/uFvTep5kK4xfz8rgHBYPRDSdeXZ9w+Zf6gnQpoOZD4SQPjnv9QzIT2l74ZzrOYnARuN60IH/q0eC2l5raP7h8od6rmQjimVHQYQ1ixXT4Y0zPtP6MScuerZkH8N1aFT7+5ST4d823VHOI9x09TzIb8eHB/Oa+Qr6gmRTyv3hy7U/Vc9I/Lnpbqu7p+1ZYN6TORHeVE3zp91f4N6UuRD61vdu38I+1fVq4dFrtX/b3d37581YJ56XuTWtE09OH9Wpoh3By8hBw9nenb/rJqi/6vHRm5MLOzJV/8zNh/m2eAloOH57vzs19lzgbF8lOxFrenlIyW9P/9xdW3vva9+FOiduQ+tK7uw658y/ujeHa38wtBFpLF1x96jj+Xk+KetOXSk7eix9YjcsaNtRw6tye3tAQAAcGn5AOKq3os4l6bXAAAAAElFTkSuQmCC;" vertex="1" parent="1">
          <mxGeometry x="90" y="350" width="160" height="160" as="geometry" />
        </mxCell>
        <mxCell id="ERzx5zdSfBYOt2s1mhw1-4" value="" style="shape=image;verticalLabelPosition=bottom;labelBackgroundColor=default;verticalAlign=top;aspect=fixed;imageAspect=0;image=data:image/png,iVBORw0KGgoAAAANSUhEUgAAAeAAAAHgCAYAAAB91L6VAAAABmJLR0QA/wD/AP+gvaeTAAAgAElEQVR4nOzdeZhcVbX38e/ap7uTTpApQeYpggyCgAJKGLS7OgSRoKJE4b7OGu9VEZCkqxMUSxnS1QEiwkVFrxOokAgoUQTT1Y1hUC+DoqBeZZRBBMJMOkOfvd4/OkrATN29q/Y5VevzPDwPT6ha+xe6utYZ9tkbjDHGGGOMMcYYY4wxxhhjjDHGGGOMMcYYY4wxxhhjjDHGGGOMMcYYY4wxxhhjjDHGGGOMMcYYY4wxxhhjjDHGGGOMMcYYY4wxxhhjjDHGGGOMMcYYY4wxxhhjjDHGGGOMMcYYY4wxxhhjjDHGGGOMMcYYY4wxxhhjjDHGGGOMMcYYY4wxxhhjjDHGGFNdEjuAMWY9ZtzW3LT5M4d5ZDLIvojuDToRZFNgHPAM8KwID6nnbhx3+pTFzCvcGzm5MWYDrAEbk0Vdi9/q1H0CeBuw2Qgq/BnRhT6Rr3N24ZHA6YwxAVgDNiYrZtzWnGz57H+o8llg30BVVwFXe0+ZeYU7AtU0xgRgDdiY2EoLWpKBie9T9PPAbtUaRpSbxXHGYHehr1pjGGM2njVgY2KZef14lyQfA5kJ7FCrYUW5GaGclguLajWmMebfWQM2ptZK/Zu4gfSjQBFk24hJfivC3LS7/UcgGjGHMQ3JGrAxtTK7d4JTOQnlM8AWseP8i/B7UTkvve/J77Nweho7jjGNwhqwMdU2e8lWTld9CuUURjajuVbuFZGedKx8i1LbYOwwxtQ7a8DGVEtx8U5O5DRUPsbQM7t58QDol31r8nVKbctjhzGmXlkDNia0rv5dHOmpqMwAxsaOMwr/QJjvxy67kNK0ZbHDGFNvrAEbE8rs3r2dShfKCUBT7DgBPYFwsVc/n/KUZ2OHMaZeWAM2ZrRm9r7eNclMlBOBJHacKnoO5at+1aoe5h/1VOwwxuSdNWBjRqpYmSzCbFHeTmP9Lr2A6Le8a+nmnCP+HjuMMXnVSF8axoRRXHyYiCuKckzsKJGtQPW7nuRMetoejh3GmLyxBmzMRmrq6u1QL19S4ZDYWTJmJcIVPk3PZN6Rf40dxpi8sAZszHqpJMW+Y4DPKxwUO03GeeBK79wZzG37c+wwxmSdNWBj1qZUcsnyw9+tSgnYO3acnPEqXKtIie7222OHMSarrAEbs6YZtzUnWzx3gqJzgD1ix8k5VeFnKnIWc9t/EzuMMVljDdgYWHNLwDOA18SOU2+GtkLU0mB3R2/sLMZkhTVg09he2hKwE9gudpx699JWiO0/tR2YTKOzBmwaU+dNr3Ky/CMgs4GtY8dpPPo7ETnHtkI0jcwasGksp/VPdM3+0ygnA5vHjtPwlLtEZJ5thWgakTVg0xhmXv9q19T0SZRTgU1jxzH/5j4RKadPbfptLjlwVewwxtSCNWBT306r7Oya9bOofBxojR3HbIDwIKrz/cpxlzB/8kDsOMZUkzVgU5+6eic5OBmVTwBjYscxw/Y4wvm2FaKpZ9aATX2Z07+P876zDrcEbFRPIvy3X+6+zJfbnokdxpiQrAGb+lDs28+JnobyH4CLHccE9zzKxbYVoqkn1oBNvs3uO1RUuxpwS8BGNbQVovdleo58NHYYY0bDvrBMPtmWgI1uaCvE5vQszp76UOwwxoyENWCTK01dvR2qnKnIm2NnMZmwCuFyL3oWczv+EjuMMcNhDdhkX6nkkoHD3w56hiIHxo5jMmn1VohaYm7HH2OHMWZjWAM22fXSloBfBPaKHcfkwuqtEPVLdHfcGjuMMetjDdhkz0s7E30O2D12HJNPivSq82cwt+NXsbMYszbWgE12nHTtmGT82A+q6ueBHWLHMfXhpR2YCotiZzFmTdaATXyl/k3cQPpRoAiybew4pj4J3AJ021aIJiusAZt4Stdu6paP+S+UTmDL2HFMgxB+Lyrn2Q5MJjZrwKb2Zi/ZyumqT6GcAmwWO45pWHcL0pO2yg8otQ3GDmMajzVgUztzerd2g3IqwknAuNhxjBki94O/wLcmX6fUtjx2GtM4rAGb6uvq38WRnorKDGBs7DjGrMPfQM+3rRBNrVgDNtUzq/IaJ9qJyEewnYlMfjyO8FWvfj7lKc/GDmPqlzVgE15x8b5O3CyUE4EkdhxjRmgpwkWelgvoPvzp2GFM/bEGbMLpWnyAUzcbeA/22TL143lEv+3TZC7z2h6LHcbUD/uSNKNnOxOZxvAiov/jE+nh7MIjscOY/LMGbEauuPgwwX1RoD12FGNqaCXCFR73Jbrb7okdxuSXNWAzTCpJse8Y4HMKB8dOY0xEq7dCdOcwt+3PscOY/LEGbDbO6i0BFUrAG2LHMSZDhnZgSvkC8wp3xA5j8sMasFm/Gbc1J1s8d4Kic4A9YscxJsNUhZ+p50x6Cv8bO4zJPmvAZu1e2hLw88BuseMYkyei3CzIFwZ72iuxs5jssgZsXm7m9eNdknwMZBawfew4xuSZbYVo1scasBnSedOrnCz/CEgXsE3sOMbUF/2diJyTdrf/yLZCNP9kDbjRndY/0TX7U1A+je1MlGkCtyr6Y4/chE//jvAimmyTiO6lIkcDxwCbxs5p1md1Ix5745WUSj52GhOXNeBGNWfJtm5w1WkI/wmMjx3HrNedTuW0Dd5PnN07waUyC+GzQHNtopkR+pMoc9Nx7oe2FWLjsgbcaIqLd3Iip6HycaA1dhyzQd/xrUs/QWn6yo1+R2f/gc75H6HsXMVcJowHQL9sWyE2JmvAjWLWL3Z3znWBvB87O8qLC3258JkRvbOrfzen/lfAxLCRTJU8jMo8v2rsN2wrxMZhDbjezenfx6V+NvBebGei3BBYkj69WQeXHLhqxEVm9b3FOe0DXLhkpsr+AXq+17Ffpeew52OHMdVlDbheFfv2c6Kn2ZaAueR9qgdwbsfvR1vIdVW+h/L+EKFMTT2H8lW/alUP8496KnYYUx3WgOvN7L5DxevpAm+LHcWM2AJfLrw3SKWu/l2c+vuw3/W8eh74b58OzufcqY/HDmPCsl/KemFbAtYNEY5LuwtXh6rnipU7gANC1TNRrED1u57kTHraHo4dxoRh94ZyTSWZ1XtMUuz9lcPdaM23LvjUj+kNW1IWh61nIhiDyAwn/h5X7PsaM6/fNXYgM3p2BpxHq3cmAj1DkQNjxzFBPe7Lha1DFnTF3k+BXBSyponOA1d69V+gZ8qfYocxI9MUO4AZhlJ/U7LMn6ADzFbYy46f6tLS0AVFeFJt8cN644Djnbh3U6z8yCPnUG6/M3YoMzzWgPPgnzsTDfjTVXht7DimqiaELqjeTbDlh+uWA6Y7dLoW+3pV5fP0tP06diizcewUKstOvaXVNS//OKKzgB1ixzE1ob512SaUpi0LVdAVK3OBrlD1TLYpLFYvZzOv/Zexs5j1szPgLCr1b+IG0o/CQCewXew4pqYkWdZ6ZAo/DlYQ7VA71m4YAlPE6RTprKzeCrH9p7YDUzbZb2WWdN24hfMrP4PwGWDL2HFMJMKlvrvwgSC1Tq9s7wZ5CPtdb1iC3gburLTcdo014myxX8osGNoS8NMoJwObx45jonvRp4Nbc+7UF0dbyBUrM4F5ATKZvFPuEpF5aav8wHZgygZrwDHN6d3aDcqpCCcB42LHMdkhwolpd+GHo63jipXfAfsFiGTqhtwP/gK/bOXXuPDoFbHTNDJrwDGcVtnZNetnUZkBjI0dx2SPKtdqT+HtoypS7HudQ+8KFMnUG+FBVOf7leMusR2Y4rAGXEuz+/d0Pp0NciI2Ac6s36AfdNtyXtuTIy3gunrPQWV2yFCmLj2KyLl+cNUlIW57mI1nS1HWQnHxvq6r8j3n/V0gH8Car9mwpqRZ3zKaAqJMCRXG1LXtUD3fJU0PuK5Kia4bt4gdqFHYGXA1zerf3zk/B3gP9v/aDJdwke8unDSi9xYXb+ZwS7GtKM3wPY/ot32azGVe22Oxw9QzOxOrhn/tTORtcwQzckrbSN+aeDlcnTVfMyKvQuUzzvmP0tX7Pz6RHs4uPBI7VD2ys7KAmop9U1X0dFUOj53F1AX1Trdibsew14d2nZVuhGI1QpmGM4DwP179PMpT/hY7TD2xe8CjppIUK9OSYuXXHr3Omq8JSFDddyRvVMQePTKhtKJ82uHucV2V79HZt0fsQPXCGvAoNHVV2l2x73aFaxTeFDuPqT9O3YgasIjuEzqLaXjNKO93one7YuUS5vQG3TazEVkDHonOX2wnXZWfeKUCHBA7jqln8rphv+WU/s2xzTtM9STAx10qf3XF3s9SKlkfGSH7HzdMSWffsU6SO0U5NnYWU/9EdO9hv6k13asKUYx5pVeBnCcDR1xP5y9s05gRsAY8DK7Ye4aK/hiYGDuLaQyq7Drc9yTeDfs9xoyUoB1OktvpWmxXA4fJGvDGKJWcK/Z9DeSL2MxxU1vbUVrQMpw3KH6XaoUxZh22cepuaOrsK8QOkifWgDeCGzj8fNBPxM5hGpJj+VY7De8tYg3YxLCpF11EsTI5dpC8sAa8Aa6rbxZwcuwcpoGpH9b9NUXtfpyJpdXBT5j1i91jB8kDa8DrU1x8GKpzY8cwjS1BXjWc1zuRTauVxZiNMNFJchWlftvpbQOsAa/LKf2bO3GXYWvpmuj8sBqwqg7r9cYEJ+zjBvyZsWNknTXgdXBj9CyUnWPnMIZhngGDbFKdHMYMy2dtZvT6WQNem86+PUBnxI5hDIDCcC/ltVYliDHD40TdvNghsswa8Fo4+CLQHDuHMSOksQMYAyBQaOrq7YidI6usAb/SnCXbInpc7BjG/ItaQzX5lSqfjp0hq6wBv4IbXDUDO/s1+eZjBzDmnwQ5huLiYT7L3hisAb+ScHzsCMa8jOiqYb5juK83ppoSJ8m7Y4fIImvAa+rs3wEY/u4zxlSRqCwb5luWVyWIMSOkqm+LnSGLrAGvIXH+qNgZjHml1Mkfh/N6hT9VK4sxIyFwBKVF42LnyBprwGtQ1cNjZzDm5fTvdLfdMZx3OGRRtdIYM0JjWD724NghssYa8MuILSJuMkYuBhnWLOg0XXUl8I8qBTJmRJza9+srWQP+p5nXvxp4TewYxqzhSa9jLhj2u86d+iIi5SrkMWbEFKwBv4I14NUSl0zG9vo1GSLoqfQc9vxI3uvHyoWC3hY6kzEjJchkUPuOXYM14NVU3CGxMxjzTypck5Y7LhtxgVLbYJryUWBluFTGjMoWzL5hj9ghssQa8GqiemjsDMas9rwmfHLUVc7t+D2CrcVrMiNJU/ueXYM1YIDSghYV3hg7hjEAKGdwduGREKX8itazQe4PUcuY0bIrjS9nDRhgxZZvZPg7zhhTDS/6ce6bwarNnzwAekmwesaMitpErDVYAwacx47KTDYo11BqeyFkSd80+H1shySTDXty6nVbxg6RFdaAAUXsvoTJBuHG4DXPnvoQwt+C1zVm+CRpabETntWsAQOC2gfCZIKHO6tRV1V/V426xgyXPQ/8EmvAXb2TQLaNHcMYABK9txplBVeVusYMlzXglzR8A07s/q+Jbyno7xT9CecUHq/GAKL8UpEbgPuwZ4NNRIIexIzbbM91oCl2gNjUMdmmp5gaeFbgzwp/BP2zeP6Yit7LuOUPUpo23O0Ghy3tab8GuGboo65C5+JtoXmnxPk9VWUvFd1blL2AXbEDc1Nd49n8+f2Ahl+preEbMGqXQ0xwzytyu6C3iehtKdxKd8d9sUO9RJQeHgUeTeHX//xTBSgtGseK8Qe4VA9COAg4CNgNW6bVBOTQyd4acIP/UnXe9ConK54GkthRAvkLcJUgv06FhxE/wCATnJN9FJ0qyDHUz981S55T9EZBbvDqbuD+J37Lwulp7FDBzO6dkKTuLeq0DaUd2Dt2JJNzKlf4nvb3xY4RW0M34KbOvoIX7Y2dI4C/itfPpuNvupZSya/zVcXFOzlxZ6G8v4bZ6pT+DpGfee9+yv1P3FpXDXdD5vRunQzSobhpiE4FNo8dqY54hV+K6E2i/BHcAKJOVfdVdYeI6BTq4SBa5SHf075T7BixNXQDdp19n0f0S7FzjNK3feuyTw/nPmLS2ftOFbkMGF/FXPUmVegT9Eqvyc/oaXs4dqBMmHFbc9Pmzx3hRacB7wIa/kt1hBTkW94Plpl35F/X+arTr9/RDTadCpxEzm8h+qbBnTh76kOxc8TU0A1YOvt+LqJHxc4xYsrXfE/7J4e7YTsAs/re4pz+DGvC66OC3Kz4y33Cjzinwza5Xy8VZlUOc05OAI4HJsZOlBNPOOT9g+X26zf6HV2LD3DqfgDsWb1Y1SWi70u7O66InSOmxm3ApZJzA4cvJaeXz0S4MR1741vXe8l5A5LO3g+qyHdC5qoLKg8hfNsP6rc4r/Bg7Di5NOO25mSL54706EcFppHzs7Uqesp7V2Be2/AXSpnTu7VLZTGwb/hYNSD6Fd/dcXLsGDE1bgOe07+PS/0fYscYoRXe6euZ2/GX0RaSzsrPRDg6RKicG1RY5Jx8M73nyesb6p5utc1Zsq0bXPURhI8Bu8SOkyVOmDrYXfjFiAt09u/gxP+BHJ5ICHpbWu44KHaOmBr2eb/E53pXjitDNF8AdXoSsDxErZx6DuU8P8huWi4cl85tv9aab2DnHPF331M427fe+BrxOk2hP3akjLhsVM0XoKftYRFODZSnphTZj9KicbFzxNSwDTjPy6E51XDb1Q09n3pusHp5ITyIyGd964odfU9hpl1qroFSyafzOn6q5UK7FzkQ5YfAYOxYkTzrE50ZolB679JLgQdC1KqxZl4cb2fADUlzewa8anBc8quQBX3rsrnQMLvl3CfCx/1Tm+3uu9vnUzr6udiBGlJ3++2+p3CiH2Q3kK/TcMtj6heCTepbOD1FCXdQXkNO8nsiFEJjNuDZS7ZiaHWfPPozpbawl4xL05YJ8knqe8/Ye0T4sG91e6TdhW9yyYGrYgcywHmFB325/T/9IK8FvgE0ws/lD741+e+QBb3qkpD1akVdbk+EgmjIBpz4wcnkdAKaoC9Wo25abv8ZyPxq1I7scVQ+5Z/ebO+0u/AdSm2Neskz284rPOjLhRk+HdwDuIz6PRj03uungn8Ox6+syjaW1SbKIaC5/C4OoSEbcJ7v/yrSUq3avvXJ2QL/W636NfYiomd6HbOb72m/2M54c+Lcqff7cuH9Xt3BArk8q1sv0bOZ13Fj8Lp3v1CVA/MamMDsG/aIHSKWhmzAkuMGDOzO8QuqsxRdafrKNB18H/BkVerXhgI/8Jq+1nd3nEHPYc/HDmRGoKfttrRceIsIxwH3xI4Tggg3+nuf+mJVim8xKbff5Ul+5+OMWm5/aCNWWtCi6IGxY4zCq9hlq+o9eH/u1Ps9vAMYqNoY1XO3F9/uy4X/oOfIR2OHMaOXdheu9q1uX4QvAiti5xmFJ1PvTqzaI25bPJ3bFbG0gXeka7wGvGyrNwBjY8cYDef8B6s6QLlwi4i8HxjxKls1tgzRmf7pzQ6ge8oNscOYwEpty313oeSdvl6hEjvOCCz3Tt5ZzfXDE0ly/DiPnQE3DCdpPfywP8Kp121ZzQHS7vYrgVOqOUYIAku8uP18d8d5dp+3zs3t+IuWCx2ifAB4OnacjaQi+iHmtt9c5WE+UN36VbVntb/PsqrhGnCeJ2CtYVPX3HJxtQfx5cKFwKxqjzNCLwKfSVtvbKO7rS7uEZqNk/YULvWa7qPw89hZNkiYXfUNB4p9+6lyRFXHqC5JWloOiR0ihoab/u2KlUeA7WLnCENP8eWOC6o9iuuqFFG6qz3OxhL4Ter5D+YV7o2dZURK/U0M6B6J+H0U9hN1Nw89BlYbrqv3S6g851TvHNTkD8xre6xWY4eWdFU+psp5wKaxs6xFty8XZld1hFLJJQOH3azIm6s6TtXJOb7cfnrsFLXWWDuUdPXvgvo6ab4AMt8VK62+3F4e0ZaEG8l3F8qu2Ksg3cQ9aPMg3enTm5Zyc7m5VHIsP3Q/R/JW0ANQ3ZcBvzfQov96/NGfUMtIqvImgSO9CE48FCtPKPxe4A+C3p6q78vLJLa0u/BNunr7EpXLFbJzH3Rop5/qNl/ADRzxBUVz3nzr5srksDXUGXBS7DtR0e/HzhGaIjeopp+kZ8qfqjlO0tU3Q1UvBqrzGNT6PezFvz/7k6xUKPbv7dB2hTaBtwDrvb/l1R1CT9uvaxQQV+z7GugnNvCyP4H0idKXrlp5A/OPeqom4UaqtKDFDUzoZmjeQtzvtdHs0z0MrrNvNqLnVHOMGnrRt7rNG22hnIZqwK7YdxHop2LnqBJVuMGh30rT9GrOnVqVB/OTYt90RS8FqrYgyCspVNQ1n8DcI56o1ZjDMuO25mSLZzt0aBP6o4Gth/N2n+g2wdYF3giuWOkC5g7jLV7gtwo/98jllNvvrla20UqKlWkK3wYmRAkgOtd3F06vavPt/MV2IsnXVu+zXDe8uoPoabstdo5aarAGXLkDOCB2jhp4AfQqp1w2eP9TfcGfPZzVe7hz8iPg1UHr/jtF9Vx//1OzM7dFYKm/qWlACx4/HeSdbOAsdz0GfLl9fLXPltaUdFVOUOUHIy6g3AVc7p27IpMT4GZev6tLmq4G9qvhqAo605c7zq9SeWF2/2SnfBzV6UBrdcaJSOVk39P+ldgxaqlxGnCpfxM34J8hzuXTmO4FneeXrfwOFx4dbiGD4uKdHO5q4A3Bar7cCyJ8JO0uLKxS/ZGZ1b+/c/qfoO8hzFnWX3258NoAdTZecfFhDhdkOURBb1Phcj+YXsq5Ux8PUTOImdePd0nTtxm6KlFtK0T1o2lPR/jbW3P693E+PRGVE4BdgtfPEpUrfE/7+2LHqKWGacBNnX0FL9obO0dEjyJ6vl8x7mLmTw6zylVp0TgZGHepwHFB6r3kYe/dNOa1/S5w3ZEpLWhJlk94N55PqXBoyNIKfVouFELW3KDTKju7puD7x65A5HIPF9Ldfnvg2iOk4jr7uxA9i+o9cvmkx7+L8pSbglUslVyy/Ih3ob5LkTyv2jc8Kg/5nvadYseopYZpwK6z7/OIfil2jgz4mwhdaXf75UEue5ZKzi074tOIFgnzeNcdvoljObvwSIBao3N6ZXuX6idQ+TiwTVXGEPmu727/UFVqr8uM25rdFs8OUKWrQaLcjMhX0la5KguTapKuvner6mWEXwHvz17ctGCX4Uv9TcmAnqhoF7BXkJo549XtWM0Vw7KmYRqwdPb9XESPip0jK0T5Ver0ZLo7bg1ScMZtzcnmz01T598iKm/Soctlw5qMpLBIW92JlNpeCJJppIbOEE8HPgQ0V3m0s3y58Pkqj/FvXLHyMLB9lYd5GJGv+MFVF1drUuBGm913qPP6E8JNzlrodcxHQ2320dRVaffKl4HqrfOeA4K8Ny23L4ido1YaowGXSs4NHL4U2Dx2lIxJEf1v78d+riq7BpUWtLB8yx2avNvVO14v6qcr8ibW+rnTb/n7npoRdbLV6dfv6FY1zUH4CDWa5S0in0i72y+pxVhrSoq9v6rh4g2PAef41qVfpzR9ZY3G/HedfXs44eegu46wwsNArxe9ONiB68zrd5Wk6dwq3MbJqwt8uZD5JXBDaYwGPKd/H5f6P8SOkWF/E+STNVmNaWbv6yXhHEHe/tIfyvm+3DazljOBX+b0yvZuUGaDfgwYU8uhBY5Oy4WaL6noipUF1GaC0kuEB8XzxXScuzTapelZ/ds48YsR9lnHK7zArxXuBu4T9OHUu4cQuTfopdHjFyTuNRM/g+pZwLhgdXNO4Na0XDg4do5aaYgGvHoBia/HzpEDX/UrW08LNklrPZLZfUer6sUo3/TlwlnVHm+tTr2l1Y0ZKKIUibRDlk/cvpzTdletx3XFvvNAP1vrcVf7PxE+H22G+2n9E12Tv56Xz+B/AdH5XvWblKf8rarjF/tel6D/o/Cmqo6TT6t867LNKU1bFjtILTTEZgyNuszZCPyXaxm4leLiqt+HSue2X+vHLn1trOabFCvTXMvAXShfIOb2lOngQ1HGVY0z7pA9VFkgxcov6Orfreajn9f2pF/hCqL8CgDhUu/d7r6744xqN19X7P2UQ2+z5rtOzbw4PjtLilZZQ5wBu2LlL8DusXPkyICofrwqzzXG1tU7SZALRDkmdhTgOV8ubBZj4NUzg38UY+xXWI7KOX5geU/Q59Q3Rql/k6bl/uDB7kJf1cc6pX9zGZN+U5B3V32svFOZ43vah7NSW27VfwOevWQr51f9g0b4u4amOi+Tq1CNRKm/yS3T2YjOIeYZ78vd7cuFdd2LrK7OysFO+E2Usdfu/5zqfw32dPTHDhJcsW8/B1ePYvJXQ1Hhp9pdqKtlNtel7i9BJ35wMtZ8R0Zkluw68ad03vSq2FFGZdYvdk8G/M2rnwPPSvNFVSJeBk6z9qzlHl6k4oqVb+f+87aGpKvyLofeZM1344lyCGhDfGfXfQO2+7+jI6JHOVm+hDm9w3qmNytcsfcTziW/VcjczEqRiPdhx93yGJC1LR0F+JCTFXfQ1Zvz+4Aqrlj5nCpXApvETpMzE5h9wx6xQ9RC3TdgsQYcgOwvqbssV0els5dsJV2Vn4B8DRgfO846VHe27fqUSh6Iv9rY2u3mVG5xXZUSpVL+vqNK/U2us/I14Ezs6tuIJKoN8b2dvw/3cJQWtCj6xtgx6oGgHUln5QOxc2yMps6+gvOr7hLl2NhZ1keEqJeBRYg5E3pDmlC+IAOHX8es/uosA1olbrmfj8iM2DnyTLUxTpzquwGvmHgA9bhtVyQq0pX1s2BX7D3Zi15H9bdKHDXxMe8Bg2qmGzAAAlOc83c2dfbVdsOKkepa/FaUet1zvIbsDDj3XIMcRdXQnk3F/iNjh1irk64d44qVb4F8GWiKHWdjDCb+71EDKHHH33iv9qI/T7r6Mn9Wmaj7InbZOYQ9OfW6ke6xnRt13YC1Qe4j1NLQBliNj5oAACAASURBVPQZM2fJtknrmH7gw7GjDMvywceiji/EHX94mlX1667Ydx7HL8jmnt5dfW9UOCJ2jDohSUvLIbFDVFtdN2CbgFUNciyl/uycYZb6x7p01WIV8vbLuoL5U5+OGUBU83IGvAb9rEyacDWl/szNLHbKibEz1JNGeIKlfhtwV/8uhNmf1rzcxKblPjtH+aW25T7RAiJ5W7XrH9E2n1hNcHk6A/4XgWluIL2Rzv4dYmd5hXfFDlBPrAHnWKNMY4/BK++JneFlzun4h+9u/39OpQO4N3acjSHEv/86mK9L0C+jyP2xM7xM1+IDbLGNsAQ9KFNX26qgbhuwij80doY69iGKi3eKHeKVBnvaK35l674oZSDTy2f6DDRgVq6Mn2H4HhGR92i5cFzQ7QFHyamz/XzDG88y9o8doprqtgGjkrd7gnnSKrjzYodYq/mTB3xPocurezPC72PHWRdB/hE7w+p70LXdAGHkPHChTwf3SLvbr4wd5mVOvaUVyMUz8nnjxNf193h9NuChCRqvjx2jngm8x3VWTomdY5162m7zT212IPB5sthkRDNw+VcUiH8gsGF/9V7f6suFz3Du1Bdjh3kl1zzwWSBzV4TqRF3fSqzLBty0PH0zkM1HFeqJcG7SVTkhdox1uuTAVb5cOMuL20eRG2LHeZmMzEDOwr3o9fCoXuLTwQOY13Fj7DBr1bX4AIQ5sWPUMWvAeeO9q+vLFhmSqDIz66tj0d12j7YuKaCcBLwQOw5kZwayJwtn4mv1J+/0MN/T8YksnvUC0PmL7ZxPfgKMix2lju2UwdnuwdRlA7YJWDUz6EVmxH6cZqOUSt73FC7ymu6h6E9ix0kzcwacjQOBNQwi+hXfuuxA5nb8KnaYdSou3syJ+xmiO8aOUu8Sqd8nWupvinep5GRAMrf1XF1S+RLl9ttjxxiWniMfVXin66ocr8rFwMQoOcRno/GJPkZ2Dp/u9qIfprvj1thBNmhlmtDSvG3sGI1Ah9aFXhA7RzXU3xnwyrfsDWwRO0a9E7jdj5O5sXOMVNpdWOjTwdehckWE4ZVlq7Ix+SkbZ+KrED3Tty59Qy6aL8D8o54S1U/HjtEI6nlFw7prwC5N7fJz9aWpZwaltsHYQUbl3KmP+57294mTtwOP1nDkp7jw6EzMzM7AJeg/eJFDfHfHGZSmr4ycZVjSno4fKVwVO0e9U9if0qK6vM9edw0YsQlYNXAh8wp3xA4RSjq3/VrvmvcHFtZoyGyc/QKpi7Ya1kpUzvBPb/ZGunN2G2MNmjR/Gng2do4618yL4w+KHaIa6q8Bq1oDrq6HvY45I3aI4OYe8YQvF6aL6PuApdUcSsnQEpArI8yCFn7vvXuT72k/k0sOXFXz8UM654i/o1J/vw8Z46Q+L0PXVwOevWQrYPfYMeqZiJxCz2HPx85RLWl3xxXeu32qOVNa4PFq1R4231rLLIMg5/ixSw9iXtvvajhuVflxcjFwZ+wc9Uxdfc6ErqsGnKQrD8U2w64aRW7I3DKA1TCv7TEtd7xThOlU52w4O2fA8ycPALU4oLrXe2335fbT83avd4NKbYPeyacgQ/PJ64woh2R+vYERqKsGrHb/t5q8CjNjh6iltLuw0Hu3jwrXhK2sT4StN2rVPAvW1atZ7ZfZ1axCmNt+M8rlsWPUsQnMvmGP2CFCq6sGXM/T1TPgf/I8WWbE5rU9pt2Fd6w+G346REnR7EzCApDqHRA84FQLmV7NKiDv3Bxgeewc9aoet5itnwZcWtCi6Btjx6hTy7x3DT3RJO0uLPT4/RXpHX01l6kzYC8S+gxYQb7uW92+gz0d/YFrZ1d32wPARbFj1CvV+jvBqp8GvGLiAUBr7Bh1SbmQeW3ZuW8ZS3nK37TcdiTwSUaxpnRK8IY3KuKDXoJ+2CFv8+X2/6TUlol1t2vJS8s5wFOxc9Sn+nvCpW4asPO2/nOVPOtXreqJHSI7RH258FUvbt8R77AU79nbtQt3BrzQr1y132C5/fpA9fKn+/CnUc6PHaNO7cWp120ZO0RIddOAFam7o6Ns0POZf1T4I/qZvfner7m77QFtXVJAdCbDve83uDJTl6DRUd8DflxU3+XLhelV+azkjGfMV4AnY+eoQ5KMbXlz7BAh1U0DFrAGHN6zfkXyleBVZ/dOcIn0uc7KucFr11Kp5H13x3le/RsENnYN4xeyNiFJRnEGrPBznzTvn/Z0/Dhkplwbek7+vNgx6pHW2USs+mjAXf27ANvHjlF3hIv4ctszocs678rABITTXLHyudD1a65nyp/SVjcZ9AvABlZ2kmyd/QIifiQN+FlR/ZCWC0dzzhFZ2NBhZOb0bs3s3uAH7z4dvJAqr6jWiOptIlZdNOB6nJ6eAcu8NF8QvOrsvjeBfniNPznTFSv5f7641Dboyx1f8p43A3ev62WCz9QjSACDg8ObhKXQ7wfZL+3p+G61MtXEKf2bu5TrnJdvUOoPuzXruVNfBPnvoDUNAgcH/1lFVBcNWO3532r4BnOPCHu2Viq5xPuL+PfP3TxX7D056FixzCvc4Ve2HoTytbX95yo88hNAurGTwlaBFrX1xg7OKzxY1UjVVlo0Lhmji0D2B17nBvzHQw/hXdNFwEDoug1uPMt1v9ghQqmLBgx2BhxY6sV9OXRRN3DYxxU5cO3/Vea7Yu+nQo8ZxfzJA76n8F8iHMcrHkkJ/MhPGOdOfRx4ZAOvuseLHurLHT2USr4WsarmpGvHyLLxVyp62Bp/+kVO6d886DhDB7DfCVrT4Oroimf+G3CpfxNg39gx6onCotWLCoTTedOrQM5azysE5MKkq29G0HEjSrsLV3t1+73scaVMngEDUF7nfxEu9TrmDXR3bOxEs+yacVuzjBtzuYge9Yr/spVr8cHnI3inX8bWiA7NGnBWNC3TNwF1c08gCxLhwtA1nSw/CZi4gZeJqn416er7SOjxo+lpe1jve7ID5XPAIIxowlPV+XLhwtUZV6zxx4+K6v/z3YUP1MUOWMcvSNwWz35P4J1r/e/CSXT17xZ0zLkdf1FYHLSmsQacFb6OfhiZoNw12N0edvnA0rWbgpy2ka92qvqNpNj3gaAZYlo4PfU9hbO90yO8d5ndhs/3FM72+K2dUPBO3uyXrZiU9nR8P3auIEol5yZN+CbwvvW8qsXhgy+56pCLQ9dscDvR2b9D7BAh5P7MUWFy3e1RFZNwCUjQS2Zu2diTER3OCjZO0W8lxV6fljsuC5klqrkdv4odYYPKU54dhL7YMcJSccsrFwIf2vBLOZGu/i/R3XZPqNHT+578qZs04QFgl1A1G10iOjmFBbFzjFa+z4BLJSeidbUySmQrvNMfBK1YXLwZoqeO4J2JIt9OuirHB81jGo4r9p+Lyic38uWJ8+msoAEWTk9Bvx20ZoPTOpl4m+8GvPItewNhZy42tquZ2xF08QCn7hRgixG+vUmVHyZdve8Nmck0DlesnAn62WG9SeTDFBfvFDKHl+R7QL5nj2dIvWw9m+sGnKTelp8MyAlhj9JLi8YhjPb53kRVvpd09h0bJJNpGK7YOwcYyczmZocbXtPekO62BxRZErRmA1PYn9KicbFzjFauG7AtwBGS/n3w3qWVkBWT5eNOZORnv2tqUdEFyey+owPUMg3AdVZOATl7FCU+zuwlWwULBDjRfK8cli3NvDj+oNghRivXDRhrwAHJj4buVYWjqiEX1hijXq9s6qocGbCmqUOu2PsJZNRbAo5zfuWHN/yyjZeOXXEVw905y6yTk/x//+e3AZ/WPxHYPXaMeuHh8qAFi4sPW73MX0hjvXJNMqv3mMB1TZ1IOivvZ+ixnwAPR8gM0HAPWZSOfk7Rxt0rOTAVzf0tyNw24CTRyQT5JTOoPES5PegjMk7dxs46Ha4x6mRhU1fvK1cyMg0u6ep9rw7NYwj1vfaapq6+tkC1AHDwo5D1GtnQRKyAB0gR5LYB18s09Exw/uqgz/7O6t8G4d3B6v27sV7l6qRYeVsVxzA5knRVjleVy4AkZF3vJejSqCm6iJevNmZGbgKd/a+NHWI0ctuAxeX/+n9WOFgUtJ7oh4GWkDXXYqzC1TYxyyRdfe9W5ftUY2Eh0XcFnYxVnvKs1t1CJ/EkOT8Ry2cDLi1oUWUdu+qYYXpucOxTYR+PEK3Vc7tj1OtVSbHv7TUaz2RM0tl3nKr+EGiu0hAtzq/6YMiColwbsl4jy/uTMPlswMu2egPQGjtGnbiO0vSVwap19u0B1HK/zjGKXpUU+95RwzFNBiSz+45W0R9QveYLgBD2gNL7wZ+FrNfQcj4TOpcN2Ln8z37LChF+HrKeg+kh622kFkUX2GIdjSPp7DtWvV4NjKn2WIq8kdMqOwcreO7U+4E/B6vX2Pbi1OuGs858puSyAWsdbcgcW6o+7P0o0VhrN7eo6EI7E65/SbEyTUUXUv15Bv8kLuFdYSvqL4LWa1ySjG3J7X4AuWzAAnYGHMZfKU/5W7Bqs/v3BPYNVm/4WhRdmHRVwn5Zmsxo6uo9Sod2walV8wVARILO6hfvfhmyXiPL8wlZ/hpwV/8uwPaxY9QF1aD7/rrUZ2HThGZVrkg6+46LHcSElczuO9qr/BgYW+uxFZ3MrP5tQtVLE/9LbHOGIFTzex84dw04yfHRTtaIELQBi2hWFsdoVtHLk66+aj6LbGqoqav3KPV6FTW457sOziX+ncGqDe069odg9RqYwMGU+nO5t33uGnA9LD+WFemghFv9qnTtpopk6dGwZlW1rQzrQFOxb6pXqcmEq/VRZWrQgsKNQes1rvEs11o+eRFM7howyqGxI9QH/TvnFR4MVS0ZGPMWqrEQwug0q8r3h9YHNnnU1FU50qNRLju/ksDhlErBvjPF87+hajU6l9Mro/lqwKX+TYg7yaduKPLrsPUohKwXUKLCd11nX7XWpjZVkhQrb/PKT8hA811tAgOHvi5UsRSxBhyONeBqa1ruDyZ7Z1m5JAQ/+m4PXC8kQfQia8L5kRT73qGQiTPfNTncW4MV62n7C/BMsHqNzRpwtfkcz3bLGof8Nlixmde/GtgnWL3qGGrCXX2nxg5i1i/p7H2PUtPnfDeaom8JV01U4fZw9RraTnT27xA7xHDlqgHnfd3PLBnUwWAzMBOXHEE+toYUVM93xb4vxg5i1i7pqpygItVc23lUBDki5BZ4YjOhg0kkf/eB89OASyUnkNsVTzJmKT1HPhqqmDrZP1St2tAzXLHylbzvJVpvkmLfB1S5lGzfZtqKWYt3C1VMVO8KVavR5XGL2vw04JVv2RvYInaMeqDw+6D1VHPWgAE4yRX7LmPGbZk802o0SWfvRxX9NoH3862GRJqCTQRNSe4OVavR5XGFxCwfab5MkvpDwu0Y39hE9E8h/1+KutcjufzpnChbPruJlvrfS6lteewwL3P8giSZNOEjKB9UYR9gs2FWWAE8gPJjn7pzOa/tySqkDMJ19n1SRS8iH7cxUKevB64KU635blih5OTvnmUKB1BaNI7StGWxs2ys3JwB2/3fgJR7g9U69botEd0xWL0aE+VYGfALQj7fOWozrx+fvGZCReESFQ5l+M0Xhhat2AOh6Jr83XT2Z2mRlH9xXX2zyFHzBVDVcBMOew57HvSxYPUaWzMD4zL5OV+X7HzpbJg14EAEF64Bj0leH6xWJALTkoEj3hM7BzA016Gp6XJVAs625dVO/LWr11HPDNfV+yVUe8hR8wUQJOhaBILcH7JeI3M56xP5aMCzl2wF7B47Rr1I4Z5QtZzPfwMGULKxjrUbOOJMUY6pQumtnPofM/P68VWoPUwqrliZj8rnYycZoddQWjQuVDGF+0LVanR5u1KaiwacpIOHkLOj5AxTWl8Md8Qt7B2sVkwSfz7E0DaKOruKQ+wnSdP3os7+Pn5B4jr7LgFOiZZh9BKWj98rXDmxBhzI0ESs/DzdkIsGnMfp5Rn2dMhJCorP3cPvayM+7M5Qw9a5eC9VvkOVDzQFjnPFyqxqjrFOM25rdpMmXIbwsSjjB5R4v2uoWqI+3J7cZiKd/a+NHWJj5aIBi8vXZYWM+3vIYlIHezOLcnM6zl0aLUDXjVs4cdcAm9ZmQJmbzO47ujZjrVbqHytbPHsl8L6ajlslitsuWDFxNgkroCRHJ2zZb8ClBS2q5GpmW5YpErQBg+T5DPhJlHI6btmRlNoGoyQolZzoyu8DwRZ32AhOvV5GV3/NxnQDepHAtFqNV3US7sAz9Rr4d7Kx5ek+cPYb8LKt3gC0xo5RLwQfbAUsTr2lFZgYrF5NyP2IfsWJTvFPb7ad7yl0xXxu0A0cXhZ4W4Sht3DqF1G6tiZn3b7c/jGv6fYiTEf1ElQeqsW4VROwASOpnQGHJPlpwNEnnmyIc3oIuVzjIatcuAUZxqzYPgc/Gy/Kb9TxE+/9NfRM+ROAj50KSIp9Jyo6M2KEPWVgzHcVPY5arKTSc+SjKSxk6B8o9r3OKQUV3y7IW4DNq54hEFUNdwl6XPPjDHhbjCOcvei6cQu6D386dpANyXwDVtXJ9qkMyT8brFSq22f0GsoyFXqd12tSny7i3KmPxw70b4p9+yn6jdgxBN4pnX1zfA9n13zwcvvdHu4GvqLHL0h4zZZvcF6OFMdUVQ4hw99PAtsHO2IptQ1SrLwAvCpUyQYniaw6JIVrYwfZkMx+wP8pj+t7ZlywBpwk+mrNzhnw4yCLRLkmHfdiL6Vpy9LYidZldu8E5/UqINizpKMifCmZ1XtnOq/jp9EyLJyeArd6uBU4m+LizRJJOlR1KipHZXC1tW0C13sOa8DBqOpkrAGP0mmVnamDWbZZIiLhzoC9jkMiXp8QHkS5yju5kjFLfkWplIUryxskXi4BJsXOsQanTr7Daf17ZmbN6PKUZ1O4kqF/hi5Xiz9KVaYKHA6MjZoPQi9o8hz2XReM5mTv+Ew34KSZyRk6w6oXwRqwOmmNcA/4HpQrPe5HlN96e03uXYY0q39/wR8XO8ZaTHBN/mQP2Vyd6qXL1edpadG45MXWdk14G+reBhrsmdxhSCgtaKE0fWWIYgLP5euDnG0CB2upvyna0w0bKdMNWFUOJQezfHJFCbjrj7TW6OdzH6I/9aoLKU+5qRYDVosTze6jOMKxZLUBr2no9sJPGfoHunonJbgOj04TZQpDG1HUwCZjgSANGGG5fdUFNZ7luh9we+wg65PpBkyOHqjOC1ENd0SovrWKEzf/iLDQiy5gbscfqzVIzYnfLbOTXZXXxI4wIt0d96VwCXCJlhaNa1reOtnDNJB3oOxctXFXtrQydOl41LzKKrEOHJRTneytAY/Q0KLxQXcdMTDodFW4ahL6+eyhpuvlh/S0/1/g2lmR5UtiAT8bkZSmLRuEXob+OZmu3klOmaa4YwQ9nJBnxz4J9/lXXZnV47LcGppJf2HsGOuT2Qbc1NT0Jq/ZzZdbGrABKK2j/dIQ9DZFrvCDLOS8woNhgmWZ/DV2gnURAu4TnRXdHfd5uAC4QDtvelXCyinqOBbVtzPaRWQkDTeLXXRVZq+M5FUOljDObIPzOZnFljtOwj2dI7SM8H2/R/UK7+UK5nXU35f+eni4JZuPToOK3hw7Q1X1HPZ8ClcBV3H8goRJEw51yrEI72AkS4F61xwuXMDfSzNE2ZnTK9tzduGR2FHWJbMNWFUOlZxNcM2FQTeyprmOahv/Urkf1QUe/13KQ6tRNaSVrbfSMrASRnjwUkUCt8TOUDNDzx0v8bAEmPnPS9WicrwKh7Axy/Q6H+6SvdBit4DDSwbl0BQWxM6xLhltwCoifW+KnaIeNYlvCXcNWlatdxa08CDoT+ph9nIw8ycPSLHyW4XMfb7TJG2cBvxKa1yq5rT+iUmTHq3oMQyt073JWt+jSZgZ0ACavQOyeqDoIVgDHqZi/97AFrFj1CPVgJNQRFf9W/8VHsTrAu/cFXS3Z3oGYiw6dKaZtQb8CGdPzfcGCaGc1/ZkCt8DvsfM68cnrnnq6vvGxwAT1nhlwAl10mKPXIYnGd8ZKZMNOEEn20exSqQql6AfARZ6dVdQfutvcrc4Ro2J6i0qcmrsHK9wY+wAmXTu1BfXvG/ctOvEt3rnj0N5F35VsDNgh7bYL014Cgdw6i2tzJ88EDvL2mSyAedpP8fcER+sAXulD+ij9cab8rIMZBak+FscSewYr9S4l5831sLp6SBUgAql0kmBq9do8ZCG00zLwEEM3evPnEw2YKwBV48GfHa3XMjkhzrzeo58lGLlAWCX2FH+yYtYAx6OwAecahsxVI2DyT6jDTh7T0Sc1j8R2D12jHqlTreMncEAIll65OdFxsqdsUM0OJvzUiVZvqKauQacNOmh2BPp1aPOGnAW+Oxc8lX4TdYXrW8Am8UOUK+GJmJpJntK5hqwqtr+v9U1YcMvMdXmNTuXfKXeF+DIuqFld+0xpOqZQGf/a2OHWJvMNWDJwfJh+WaXoDPhgSf+QMCtIUfD2QSsuFyLXX6usiSjG/tkqwGXFrSocmDsGPVM7Qw4GxZOTxXNwuIkKwfHrrQGHNPAwBOifEDhamBF7Dj1KKv3gbM1C3rZhP0RQu+wY15yt1Mus0Vns8GpXKHC22NmUPgZpaODbKlnRujCo1ekcClwqc5espXzqz4KdGH3hcORbDbgTJ0Bu4wepdSBOwQ5xpfb9017Ct+OHcYMScfd+H2F/ogRnlHRmRHHN68094gnfLnQ7b3bc/UZsQljT7puzNyl/kw14KwepeSYBz7vW92b0nL7z2yFqowplby2rninwuIIoz/iRY+ku+O+CGObDZnX9pjet/R4lG/GjlInXCKrMjfBN1sN2M6AQ0pF+ZAvF86yR0wyrHT0c1punyqqHwL+rwYjPg+c66VlX7o7bq3BeGakFk5PfU/7DODLsaPUA9XsTcTKTgM+rbIzsH3sGHXCi/LhtKdwaewgZmOIpj0d3/WtN+4tcKygv67CIE8gfNGvXLWLLxdm0X3401UYwwQn6suFUxHOjp0k7zSDe8xn5uHkpKtygio/iJ2jDniB/0zLhW/EDmJGobj4MBFXFOXtjOb3VHgQ1fm+deAblKYtCxfQ1FrS1fteVbkE2DR2lpx60be6zbN0RTAzZ8BZnSaeM8+J13dY860D5Sk3aXdhmvfuDQiXAsObvK7cJcgH/Vi3my93XGDNN//S7o4rPH5f4BvAqth5cmg8L/rXxw6xpsycAbti5XbgDbFz5JQqXKmeLuYV7o0dxlRBV+8kByejMgMYu66XiXIzQjktt//UJt3VsVP6N0/G+ENUOVhFDxCR/VF2rtJoTwErgYlk7dHV4VJO8j2Fi2LH+KdsNOBS/yZuwD9N3n+4tfUAyq8Q/Z1Pkms5p+2u2IFMDXT+YjsnTSeDfgh49eo/XanoIkW/THlKFhb3MDGcet2WNDW9LhEmqeM14Cap6rYCE1DZEtEtgfFreedzwDMIz6hyn4j+SdTdlUr6J3zrPfQc9vy/Xtm5eC8n8jaQjwCvq9HfLBzlh76ncGLsGP+UiQbc1FVp90oldo5AlgEPCAyoMBFlG0a31+cA8Jehf+SvItyR+sFf0XPko0HSmnwq9Tfx4qpdcTIWbX3gZV+SxmxIaUELy7cdz9jKsyPaWrFUcsnAYScqcgGQn+VthQd9dyEz24BmogG7YuVzwJmxc4zCP4BveO+uZF7b7172X0olx/OH79jUrLt7ld0R3RGVVlTH4aQVTxPo8yBPI7yA8owgf0uRR2lKHuGcwx+zS4nGmEyaef2urqnpxyiZure6Pr6JHTi78EjsHJCRBizFyrUCb4udYwRSYL5vXXGmLednjGlIs/q3cYn/dRXvQQclwvS0u7Awdg7IwizoUskJvDl2jBF4QeBdvlyYZc3XGNOw5rU95lOOY7gz9SPJ0vPA8RvwwBF7AZlbo3MDUqd6bFouLIodxBhjoptXuAMlF+vMS4YeeY3egLO6T+N6KV8Y7OmIuYi+qbbSonHM6d2aUin674gxeeATnRc7w8ZQOIBTb8nErnvRH/vJ3QIcKg/5geXnxo5hRun4BQmv3Ww7Bpt2TYRJik4CN0m8TlJhEgNsDcDA4U9S7J3ryx3nR05sTLbN7fgLxcqdwH6xo2xAMy0DBwFLYgeJ3oCBzO1QsV7iv8yFR9um2VlXWtDCixN2JPE7Jl52VmQXhJ0VdhHYGdiRQZphaBWTofmIiv77tMSJIOe5zkqr7ynYerwbq9TflAz4D3vhGFTGifAPlH8gPCzoY2mqD9PEPxgz8LCt0lVXlpD9BoyDyb7hG/Bp/RPBvzZqhmHy3tt93yw4rX8izYM7JprspMrOoDsh7CTojgo7MyDb4BDUvaypjnjav3A6pf4LKLW9ECJ+XTt+QSLL/E9UOHroATqFfz5It/pfnZOhzTIHxkGx8jzwsMJjAo8Aj6E8IiKPp5I+iiZP4JoeZ+4RT0T6G5mNpg9k5OGa9crKldeoDThp8odoHn5aL3mMeUf+NXaIuje7dwKSbJukfkeUbVR0R5AdFN1JkB2BXcCPQx3Kyz9BWr2PUysr9HXAb6o1QL1wk7b8GHD0MN7yKmAvgb3+9ScCiuLUAQp+FRQrg8DjoI8r8ndBn1h9Vv2YwOOi/GNQ9DF80xOM/+XjI1pgIqvmLNmWVenWiG9B/P9RnvJs7EhrI8jzeVi0QOCQoetdcddYiNqAs3IUsvH0sdgJ1quzfwdcui2pf4bBTR5m/uSB2JFeptQ/luXpdqhulyA7qLhtUd0RZRtx7KDKdsD2eMaC519Xhlc3VYl9rDY4+FTcAPmgyDuq9JNqArYD2U5gf5B/HXwpoAIOAedh4HClWFkKLBXlSe9YKspSYCnCk+L1SWBpqiyliaUIS2lJlmZnpxyVps7+di+cgHIk6aodX5oy66Cz7yF1eqfAneL1dynJr+lpezhmYgBVmZiTdYMm0tn/Wnpq5qxOJwAAIABJREFUsgf3OkVtwAKTc/GjWk1w2bn8WOrfpGm5P9h7DlHHm0V5E/ithr6FEmgZWCldld+ocq1Xd1ktfzldsXISsCuwlcK2AtsAWzPgJw59Y8pQc9XVP3156V8z7B67+rHR1rlZRA0JQ5sHTFRhj5f1BAWVoc7thKFL4QADHoqVZ4AnBJ7xyLOgzzjhB2l34eqapC4u3sxp8kGk77887Pmvv8krie4oyo7AMSqCw0Oxch+wRIRfpqm7jnlttT9hEM3NLcUEnZzSqA14xm3NyrMHRRt/BBTdNmqAYt9+Dn2bCEfpgD/UQxPrvojSosrhwOFO/Fna2bfYwTfSZzZdxCUHVnsrs8OB4yFf9xfWS/h+7Ah5IUOX6dti5xihzYHNlX8dJpJ6Vw45QFOxb6pHJ4nwDDCIaqIqr1Fhf4GjEN1khKUnAZNU+ZBz3kux938V+Yl37sfMbftzwL/COqhAZWpefutVOATiPrscrwFv8dxrgUw8izUMO3LqLa01vbTb2X+gE/9eYDroTjCis8VERI9SOMpt8ewLUqzcoSL34/0KhCaHWzBYbr8+VGQn+i2vcnyoehmgHndZ7BB54ZHLHdoVO0cQyl30tN0WsqRHzwf2fun3WNa8mh6KU+TNwJud93OlWLlVle/5RH/I3I6lYYca0tRVmepV4p6kDINkYLZ2tAacwOuyf9Xx37QkzcunpHBNVUc5vbK9WyUfQfQD4HcLXH0ThSNQPYLVl+FS0YlAsAY8eO9Ti92kCQ8DO4SqGZMov6bcdk/sHLlRbr+TzspdCPvEjjJqTr8TtF7n4r2AvYPW3AgKByEc5LycR2flSu/8PLqn/DbgCKLa98Vw9apPYS8iT8SKtsqPKnvEGns0VPT/VatyU1fvUVLs/bEb5AFEvwSEbr5rJcqRlK7dNFjBhdNTRHOxLN3GUMTOfofLUQ//z1Z4afleyIKO5D0h641AC8IJTt0dUqxc39RVaQ9R1HX1dSocHKJWDb3q/7d35wFylVXex7/nuZ0m1YgQFkUcXBj30VEh4zgISHVViAKKBAiJIqJgHBfQCOnqgGChkq7qTgRFFBl1XBkMCLyDsvWGCQRU4qCCsggIyKJAQljSWfo+5/0jIASydHXfW8+tqvP5k/Q995dQXafuU/eeh67+oFfs4cbsiTba/OdnHE73QILfXatE3YOHutLQcq9yhSCHUP+VicnRSPv7kyzovT8XSPu75npY5yP/09AhGo2PRs/n2dubGpT+NPFnj0UPS7TeBAgc4JVBKQ1ezryrXzveOlHX0AyUxhxSE7kdQp4+XANWtgt27omRSOVblC/rmGihaN7Awa576CZVLgbenkC2cfOQ7Cfz3gMeQOXiRGsGoOgVaX1n1tTOmH6fwi9Dx5gIr3JOogXnD7yODHzv+HwC73Uu+oMrDZ3BSVdtO/YjVVz30FwVXQxEqQVMUxwlt/I3DgGvgDMxBnNcFPaSkdz5lIfH93founo3KQ3+TJ1clpWNrAWZzueGE/006CPOTrJeCE6bYik1CCeNu3Qv8Ct6C79OsqZTOTrJegnbBvRkF0V3uNLg8ZSHt/AomQrd/ftHpaEbUP0qjdp8ASINmj1cExR9fFODdxuFIIe4NX4gnjc8a8zP2x2xOHJ77PifIAuAoJ+8NmGya9cPevhmYhV7Oq+TrsHrVHhXYjXr67G4I/p56BCNKtb4Zw53Dtl4Lrg2Kr2J1iuXHavl6OwPqZCXAV93I36Blgb7RfQ6Uf6G8qSK7I7wOnTo/ah7Rdb/JmPi46B7uYe8Cs3kKLVaqPJu5/wfKA30+Vz0zc3OCS6XXduafQ7wSDUrV7ybJHosSTZgAJEe0MZsYspFlPNrQsdoWNVpqygNXsbTz4Q3kFvjjiWXJlmwbc2+RS+6e5I1U/YigUNROfTZiXQ8O9O7eQTtQ8EasHi5u4EvgJ9rZ5CqG/GnaWngGhFZKl4fwrFGlV1R3sSIHOxht9BBx2BP5g2/jb78TUkVjKv5y11p8CaQtyVVs1688KPQGRqdqPxYRRuqAYtIX9JzpL3y0STrmUSsJdf2QMgAwRpwDLc02U7n2wpyEMpBKvLsJ8UG+5DhIn+sh+OTqygqMvQVVb0ouZp1INxDpXNp6BiNLu545Eo3stOjwE6hs4zRXfGKFyf7wWvulTsCH0i0ppk44bbQs7/D9cAO90ea4zGV5qJ8KIk7vJ8rruQvFjTRaUKpU/lJ6J1SmkJ55jpgcegYYyXI6UmPanXtbcfRiN+DN7/fhQ4QrgGX80+KcEOw85vNmeJGOj6SbElRUU5Otma6PJwfOkOz8E4aZY727XFOkv3/fsTiCOSTidY0iRDVq0NnCLoKrF6uCHl+s1mfpVxO9LUx2lvsVxhKsmZaBL2RauctoXM0jZ78MuCu0DG2RlTmJ70kGb16x0OBVyVZ0yTCx649sfG74xX0WVyvutgJXyHwBwHzAq+PRvZ7bwy/SLKoeneiOH8jGX9uUMVl++p37rKc22bNZ1S1COJEGfIdcvZm78IPThSGLgDN7CqICL+Mq53JD44R99lmvHW40SkylPiUs3EI2/j6Cncq2h80g9kkj85NvGhf/iaQ7yReN1mxd20XhA6xWeXhF7n2kWtR7RU4QNAiogvcan89pf7tQ8fbHB9nepxnHMfuc4lX7Rqequg+idc1E+aEc0NngNANGHCeb4TOYF5IoMC8wT2Trutd26nAY0nXTYoiwyzY78HQOTbHjWgFeOH/F+HNDndm/RON0cLi74E/hY6xGd9L8tG7Z4j4U5KuaRJxbzxZ/l/oEJCBBhz3FX8uyLWhc5gXEqenJV50w7JPZpcinWp2l5+7+t8I+okt/MRHKPW/pW55aqVk8Sr4Ye90fuJVS/1vETgk8bpmwgQ5NfTjR88I3oABYpV52BclmSPI++nuT3yTCJ9b+m1Rrku6bgLWxOIzu4GEOFdhy/dtOFFXqVeeWnkkc0v7opyYxmYbTqNTaLgpAK1Ab4pzSzIzozwTDZje/A1gS9EZJKIu+avgctnHkc4B1iVeewIUfk51WjZHpM4bercoW90yUoQDmTf07npEqllv522giS/1jpfCYNzbmfyb8fzhN9Bg079axHov7rikp5xNRDYaMODX5UrAH0PnMBsTOIR5w8mPkewp/hGVryRedwKcZPXZX5XI+YVj/enIaZXM7nQiWVmGfkLj0Y+nMWzFef9FMvTeap6hZSqdy0OneK7svEjO3HvE42cBT4WOYjYi4vyCNAr7DukR+FUatcdhZfzU2stDh9iUqDQ8W5GpY/15hX+PugYzs/H7c/l49Kdk4OsmgRNZOP3uxAt3DU8Fjky8rpkQhX5/14pq6BzPl50GDFCd9gfZsCNP8F9Q8yyB97Z1DxQTL1zOj8ZOjwZWJ167VsrPOPvAtaFjvMDcZTkVrfkDkIosoLy4PY1IE7Jw+t0Cie6zWytVLo+rnak8Dieifdh3v1nzF3U6mwtnxqGDPF+2GjAQV4o/BRaFzmE25lUWJj0dC4Ce4u0IJyZet0aObN797CaNdKG8chyHvtaN7PiZxAMlQCXoMvTfVN2xaSw9R6WhgwTdP+m6ZkJGvPgZadxol4TMNWAAn3PzFQZD5zAbeWu0et+EZ0Rv4CuFcwk7sP+vox3X/jLg+TftxMFXIpTGX0BOZf6SXZILlAwf6WIgxI0w3ql+mL78Q4lXPmJxpGjmljhbnaBzqEz7v9A5NieTDZhyflRH3SyEe0JHMc9S4SuUh1+URm2fW/tx4I40ao/BBVm6M/IZ0qaLgNwESuzg4vVfSipPYs4o3C8Q4Nl/qYz2FlOZvOdevfOngX9Jo7YZJ9Gvx9ViZh452pRsNmCARflHPHIYMBI6ivmH3dyInp5K5fKBj3vvZhLg+2AvPnPLz21dQwXZ8PqfGOHjWRzOoVrfZWiFq31OvphK8XnDuyKavQ86LUxgiV+xw0mhc2xNdhswQKVzuaBzQscwz6UnpDGcA4C+/E0icjT1vQnv1swtUZWH27xoUmMlI8GdlVCtxPio7UKgXtOIbtW17si0ph855xcBmZ3D3Xr0wVjj2Unv65yGbDdgIK4Wf4zYkI4MaYtUvpnKDVlAXOn8GVDP79Iyt1etW+0/AyR21SrQGXUNbXWIR1317PewItfU4UyPes/BnJVPZf54W9dAHpidRm0zLmu9c4fSe8ADoYOMReYbMIBfsf3nbV50dijyTrdm39RWJnxu6SkKl6VVf6NzOQ1589cLnXTVSxDKSZdV0UVZeyxJ8BelfIp13sth9BXuTKV6eXiyF/km9thRZojwGXo6szJbYKsaogFz3tT1sZcjgIb4VNMSlB5OuWr3VGqXy17j0dnpPy+qN9FTvD3dc9TGRVEP6Sxnvsat2fmzKdQdNx/HlwCpPZspqp+irzO1u9vd6vhLwBvSqm9qpHpeXClkfbvTjTRGAwboyz/knR5OxuYHt7AdZLTtu6mNPFw4/anYTToY+HMq9QHUZevqt2vwHSDHpFZf9QucPPDS1OrXauH0vyssSat63Fv8bkq1oTS4NyKfT62+qYmgN/iRdSeEzlGrxmnAAD3F60Eb7h+5WQlMc13Dn0ztBD37Pew97wFNZX9e7+TCNOqOS7nsIuHrpPs7+WIXuzNSrF8zUUlhGVq+66udXcnXfdrcZTkH/w1EqZ3D1OKhuE0Oz+Qku61orAYM+Grx2yDpfbI1tRHtpXv4NanV7yvc6XHTgEeSLCuwnEo+vavrGkWr9/2Iwr+nfyb9KPMG90z/PGPjVS4m0aEc+kOfWzInjUlXz3DtIwuA16VV39Rkvfc6kzMK94cOMh4N14AB/Oo1nw49T9b8w7aR9z9kzo2TUjtDtfMW75kOJHYnq5Khm69K/dur0FOns7nIydcys1tSX/6hBIdynO/vWvGxNIeqRPOHDgQy9V16izuRvuLS0CHGqyEbMGcfuDZWdxjw99BRDKjwH26Hx9Jd2uwr/NYr04GVCVRTH8eZWX52RKcBdftuVtF9ou7BmfU639YoJLEMfaHPuY+kOnC/6+rd1Ov3sbueM0J/6KuFs0OnmIjGbMAAvfm/ejgUuykrG0ROikpDh6R6jt7Cr713ncDDEykj8OtUtqIbj67+N4IeX+/TqspCTrpq23qfd1O8dxcygWVohUv8yu0/lNagDQDKZScS/RDI3Gzt1qQ3+dxIevef1EnjNmCAamEZaHo3W5haiKLfpdT/ilTP0pe/ySP5idyYpaKZufoVcV8D0lu+37x/clEUfBcqYMMytHL9OI9erLlHZ6U99ciN7PMFgUKa5zBj9ogflQ9Qfl/4bUwnqLEbMOCrxa8hkrlpRi1qp0jdBakPfKh23uLj+F3AbeM4Wv36NO68rV3UPXiowLRwCaSU2rPcNRrXhyLhGz63dDblmamugkWlwfeCnJbmOcyYxU50NosKTbFRT8M3YAA/+ak5oDeFzmGe/j549U7npH6ihdPv9qNuH0FvqOUwUW7IxC/v3GU5VQm973WHG22rBM4AgG+LL2bsM8AV5Qu+Ujg+9V2suoZer3A+9shRNojMH60UB0LHSEpTNGDK71vt43gGkMlNl1uOcJwrDaR/p+ii/CNxbqSg6M/GeoiG3Xf4H1z76nmgrw6dA5hNaXDv0CE4Y/p9go5lhOAaQT/oewvpP89c6t/eiV4K7JD6ucxYLPaV/MLQIZLUHA0YYOH0u53wQVIcbWdqIQvbugbSX14tv2+1VgtHIJzO1q+gvMeFX34+cfCVIKXQMZ4mEfq1tDbXqIXC1pahH/JO9o+rxQtSD1MuO0F+go2azAblZp9zx6b5fHcIwX/pkjRaKVwNfCF0DgNAmxf5KV1Dr0//VKK+UiiL6kzgyc3/FNfTm/9r+nm2TNo4E+gIneMZikyNRvY9NnQOPyo/YzMfogSW+bbRd9Rr0L5bs8+ZghxUj3OZrXrMO3co5fxmf7cbVVM1YABf7azWsiRpUjXFiV7JyUteVo+Txb3Fi7z6dwC3bOrPFQm+/ByVhg6SDY/PZYpCD/MHdgoaYlHhHkGXP++/KkhvnHPv5ozp99UjhusemoeKjbzNBi/IUVmaWpekpmvAIKq56BiUm0MnMQC8yo2uv5rupVPqcrbeaX/yOTcV+K/n/Yn3kwJ/MJu7LKfo14Nm2LydXMyC0CGetw3lI+LkYF/tLKX6jO9zRKWBWahm4sY0A6iU42rnL0LHSEsTNmCgnH/SR3oYsCp0FAMIb45Ydwnl4cl1OV85v8ZXC3ME/TBPvwZEuT70vFjXPnIysEfIDFskchzzh+owj3rzvI/+d0MUlvo23hb3dF5er3O3dQ0VFPkBzfq+2GBU+F/fm/9K6Bxpat4XWk/xdoEPk+igdzNeqrxbRvxPKA+31euccbX4Y4//V0WuCT58Y/7A64B5QTNsnYu8nsMRi8M9ctO3/+9AT4wnu866fmAqDe7tN9zxnO4z7GasblP1RzfbTVfP17wNGIirhcsQvhw6h9lAYIYb8T+q6xt8ddq9mltS8HEcdKNu8fINYJuQGcZCYS/36p0/ES6BqK8Wv1qvJWcAugbf4eBy4EV1O6fZkie80xlUpzX9CmYLDBVXkdLQRQIzQicx/7DY51y6s3szJCoNzFLkf0LnqMFKH4++gYXTm3+zk9LQWx06BOwYOooBQEU4Mq4UMjMuNk1NfQW8gaiudccCd4ROYv5hplvjvxd0qbNeype/WAk+8apWU1yUjQlZqdrQfAex5psdopVWab7QEg0YOCv/mEcOZQvPiJo6Uz7s9tjp+/X8TjgEN7LN6cBuoXOMwzGZmJCVlq7hdzp0GAj76JX5B0Wv8neuODV0jnpqgSXoZ0VdAx9QkYtpsb93lqnwc12bm8mZe4+EzpK4Uv9bHG45YXY7SsIffM7t2XRfFXT37+/U/S+wXego5mnCPX69m8qi/COho9RTa1wBPy3uLV4K0hc6h3mWKAdH7SNXUurfPnSWZKlEuHNp3OYL8BY34ht+z9XniuYNHOzUXYE13ywZ8TEzWq35Qos1YAB/1yMnK/SHzmGepbCfQ67h5IGXhs6SlKhr8GMKzbCE+2XmDe8aOkQSoq6BY9XJJUB9nkc3YyLIcfQVfhs6Rwgt14C5cGas69bPAu4KHcU8l7zNxXIj3f1vD51kwuZeuaOK9ISOkZDtXeR7Q4eYGBXXPVhWke8ATX3PQeORr8bVzvNDpwil9RowwJnvWeHFHw403/eOje2fnLprovlDB4YOMhGuva0P2CV0jsQoR1Ea3C90jHGZuywnpaHFKF8MHcVsTJFrfC4zu4IF0dI3I0WlgaMU+VHoHOYFYtATfbX4tdBBalYa3M/BNTTb75Zys+9wb2+oG7JOXvKyKF5/iULQ8ZpmE1Tu83791JZ41nwLWvMK+GlxtfhjJLPD8VtZBHKW6xr8r7rNj05CeXG7g3NptuYLILzZjcSNs0NQqX8fF69bbs03k9Z45w9r9eYLLd6AAfyKHU4SWBI6h9kE4Tg34q+jeyC7Gxg8h1u9cwl4Y+gc6ZFT67ar1QS4rqETHG4IpC7bYJraiMinqRR/EzpHFrR8A+a8qevjSGcCwTdqN5u0p1O5MSoNvi90kK3xooMIZwj8CohD50nIQ4j8QNDZ3ulrqOy7MnSgzTrpqm1dafAniH6Nxn78q3kp58aVzu+FjpEVzbdUNl7zh/7def0lDTAwv0UpSJ/PPXIq5ZnrQofZqu6lUyLWd6oyDXQaWd6GcGNPKfIbQa/y4q+iUrypIXak6R7ay6n+BHh96Chm0wSWxblH8w3x+1sn1oCfIyoNHa3oD0LnMFug3OxFjqLa+bvQUWryueEd2Gb0zQ7ZC5G9UPZiQ7MIOQ/7SVF+p06Xi7rlsXALkx/5Q2O9Qaq40uAJIL3YVoJZ9pBvY2roPbmzxhrw87iugW8jMid0DrNFI6h0+9782Q1xdbY5J121LZOif428e62q7o7wchV2F3gFysuZ+JziUVQeFOEeRe9FuQ/R+wS5N1a5nY4ld1AuN+5+2adctbuMTvqhoPuHjmK2aL13kqen87rQQbLGGvDzHX/5NlFH+zWKvDN0FLNlCv0qbg6V/F9CZ0nF3GU5oid2pa09At0e8e1tyrbqXQdOt2HDUIlRgVXA6CiyCidr8fFqHE/RHj3aUI8NjZmKKw3OAakCTTbCtAmpfNr3dn4zdIwssga8KfOGd3XOL6cxd7FpNasRvuTvfHQhF85slhufzOZ0D+whKucJFEJHMWMg/MhXCkeHjpFVdhf0pvTlH/JeZwHrQ0cxW9WBUon22PGGphhjaTbLlQY+61RutubbGAS90U929nXeFlgD3py+4lLgxNAxzNgoMtWp+3UzbehgNqbIPkAudA4zJg/H6GGU82tCB8kya8Bb4KuFsxFsVGWjUG5lQfFvoWOYdDjVn4fOYMZk1AmzqE67N3SQrLMGvBV+spsj6I2hc5gxEAZCRzDpiWO5JnQGMxZaGq0UhkKnaATWgLemnF8TS3QE0HKbRTcaUfug1NQWFe4BfTB0DLNFF/hq8auhQzQKa8BjUcn/xanMAprwkY7mEauzcaJNTsAGOWSV8Hsfjx4XOkYjsQY8RqO9nYOInBw6h9kSfSJ0ApMuj2R3FnVrW+ljZrBw+lOhgzQSa8A18JX8QlR+GjqH2bQ20YlOjjIZJ7Bz6AzmBbw4OYq+wp2hgzQaa8A1EfUdchzKzaGTmBdS514dOoNJ3StDBzDPo5wW93ReHjpGI7IGXKty/kmv8QzgsdBRzMZU+efQGUyKThzeGdgxdAzzLIVLfW/ngtA5GpU14PHoO+AOQY4CGneQfRNS9DWJFz3+ctueslZzbpzE/IE3JV63zSdf00zErZpb+5GG3hAlMGvA4xRXO38BenroHOZZDk12dvcRiyPXsc31rjS43JUGu5k3aFfYm3PE4qite7DTlQbPc1NWPei8LKdrKNG9eSOR5D9gmfF63Dt3KOUDHw8dpJG1hQ7QyHy18GXpHtpLlPeHzmJAkUSvVt0eO34WeGa+9J7O0UNp8LfAJV7kCir537b0p//yZR3RSEdBkYNAD/HKrs/940j0e/GcG/fnvKmJzFRXz4ts+5hMUFH9CD35W0MHaXTWgCdEVLX/aMH9ig2bq5uwkmuGXcPvBN+ziT/ZE9jTqX6Z0tBDMHiFCFfEMukaevZ7OLHzZ1VX/xudSKciB8kIeYXJm/tnV9jbTVlV9fD5RM7t/CTUOnBwwoK4Wrw0dIxmYA14oqrTVvn5AzOclxuA7ULHaXHJPAbRPfBvTv0vgPat/OSuwEdV+ajT9Upp8E8oS0RkaayyhN58Yw8GOWJxxB5T3uTUvRthP2A/4KVQ0z6mc1334OO+UihPNI4g97buckM2KFyhk5eeFjpHs7CPkwmJuoZmqOhF2L9pOCon+97OTV21jrlA1DX4MRU5k2Q+TD2kym/F6XJRtzwe1ZtY1HlvJpety4vbWbfL66JR/3Z1OlW87KXC24BtkzmB/tCvjT7LWfnxPz0wf+BNzsstyeQx43Cnl/Z/o7KvDUNJiDWLBLnugQWozA+do0Wt9xq/it4DHhjX0d3DrxH15wgckHCu51sN3IbK7Qi3ieqfY5V7ieR+JvPXVLdv6146BTf68ijWVyr+n1B5rYq+QZDXA68i/RWxB0T103Hv+Jcvo9LgrxX+LclQZkye8rHuzcLi70MHaSbWgJN0xOJI9tjxF4JMDx2lBV3gq4XZNR9VLjs3su/JwCnA5MRT1e5h4CGBlV54TJCVqK5EdARk1YYf0VHBPQGgqhHCiwHwtAHb4XQ7vExRYQeHTlFkCrA70BHkb/Q8CpeqmzRnPN+ZR6WhoxX9QRq5zOYJOjuuFi8InaPZWANO2twrd3Ttk34D7BE6SgtR792e9OVvqumo7qVTxK8/X0Tfk1Iuszkq93nnD6NS/E1Nx825cZKbsurPwCvSCWZeQFnkewsnhY7RjOw54KSd+Z4VPtZDARtKXicKV9bcfOcuy0V+3S+s+QYiurtTuWbD3eY1OG/qelQWpZTKPI/CkO9w3aFzNCtrwGlYWPy9IHNCx2gV6qVa6zGufeR7KvxHGnnMmHU48Zcyf8kutRzkO576DhuW6k267lU3aRblvG3DmhJrwCmJq53nA2eFztHsRFhKX+cvazqoe2gv4Mh0EpkavdTF60s1HVF+32qgN5045mlrvOjhLfFse0DWgFPkc26eIteEztHMYqXm5TFBy9j9D9khfKrmq+B1uXOAxn7OOsNE+GTN38+bmlkDTlM5P6rOHw5yd+gozUiVy6kWltV0UFf/G0U5MKVIZnxyLh79z5qOOHPvEdCvpJSntQnfiCuF74eO0QqsAaetp/ioF38kkN7zna1pvYqv+erXOTcfe91nj+inat15yq/c4XvAn1JK1JJEuc6v2D6Z0aFmq+yNqB4qxd+IyKdDx2gucibVaX+o6ZBS/ytQZqUUyEzMrlGuvbb/N+dNXe9ET0gpTyt6IG6bdERSm2eYrbMGXCdxpfN7KOeGztEUhHt8vP5LtR7mxM0BJqWQyCRBan9yYLRSHFC4KI04LWa99zqLBfs9GDpIK7EGXEe+49HPinJ96BwNTp3KJ1g4vbbnrMvDbSgfTSmTSYDC3nT1v7Hm49pGPw88mUKk1iGcQF9xaegYrcYacD2VZ66L1c0A7g8dpWEp3x6tdl5V62HR6vhgYLcUEpkEOYmOqfmgM6bfh0ptjzKZZwk/8pWCrc4FYA243vryD3knRwL2PUvt7vQdbt54DvRO7Oq3IejRHLE4qvUo35v/lsJgGomamcBv/GRnQ4MCsQYcQk/ndaBzQ8doMKMejqacr32psdS/vSi2QUZj2JVX7bxP7YeJ6ijHAo8nnqh5/T1uGz0s1R24zBZZAw7EV4vngHw3dI6Gocyr+Znfp0Xq3g/U9IiLCcc5PWxcBy4q3CPCMUD29lvOnlERf3tWAAAKgElEQVQv/kjOmH5f6CCtzBpwQD4nnxGwaTNb92PfWxj3WE8vHJFkGJO6GaDjmlQWVwqXoDamcuv0JCrTbEpfYNaAQyrn18T4w7HB8psl6I1+XW7831HNXZYTKCYYyaTv5XRds9d4D/Z3P3qKwtVJBmoy5/tq8WuhQxhrwOFVp93rhFmA7TjyQn+K4/igDWMHx6dtm5F9gVyCmUwdOHTauA++cGas0j4L+G1yiZrG73xu9cdDhzAbWAPOgNFKYQhR23NzY3d4jYssnP73iRTxngOSCmTqR0UntmpR2XelX+sKgt6YUKRmsNJ7Dnt6NymTAdaAM8JXiouAC0LnyIg/+zby9B7wwIQriTXgRiTwLsqXdUyoyFn5x2LHe0BvSihWI4sdMpu+wp2hg5hnWQPOEB+PHgfUNt+4+dzvxU3jjMLEh5V0Xbsd8C8Tj2QC2IancuP+HvgfeoqPetd+APDniUdqYCqnjmeAjUmXNeAsWTj9Ke85FFgZOkoga32sB1LJ/yWRajLyVuw13rCck7clUqhnv4e9uPfSor9XChf73nwldA7zQvbmlDV9hTud6pFAHDpK3QkLWVj8fVLlHO7tSdUyIWgyDRigkv8z8MXE6jWO2zS39qMg9mx0BlkDzqDR3mI/2nJvFk/40dGeZEvKW5OtZ+oroSvgp/mc+xZwV5I1M26VVzmE8oE2HSyjrAFnlO/tXNBS26yJXFzzDkdbofDKJOuZunt1otXK+VHg/ERrZpeKysfo7bwtdBCzedaAM0tUc2uPBW4NnaQeRJMfnCDoTknXNHW1A+XF7UkW9MplSdbLLvly3Nt5cegUZsusAWdZ+cDHvdNDgFWho6QtVk3jLtVdUqhp6kdYvctLkq3om/6KUOFqf9cjXwqdw2ydNeCs6yneLqrNP2DeuQkN3NiMHVOoaerJ6UsTrVedtgpI9KuOjLlD17ojuXBm693E2YCsATeAuLd4KcKC0DlSpaPbJVpv7pU7AhMb5GCCi5Rdk62oQvOOJn3SR24GZ+UfCx3EjI014AbhJy89TeGK0DnS0ka0W6IFt2n750TrmUA02dfFyYMvoTnf91SQY1mQvzl0EDN2zfhCbE7lsldp/xDQlKPkvGo+yXrOy7uSrGfCUEnwWWAgGnXN+bpQXRhXOxeHjmFqYw24kVT2XeljnUEzfoclHEK5nNjrUYTZSdUyAal8IMnXhYoenFStrFBkwN+9Yn7oHKZ21oAbzcLi7wU9LnSMFLwhWr3PjCQKtXUN5BXekUQtE9xuSb0uOHnJy4APJlIrO/6iozLbbrpqTNaAG1BcLV6Asih0jqSpSA/ly188oSLHX76NFzk7oUgmA1Skj7nLJnzjlIvXLwC2SSBSVox4z2Esyj8SOogZH2vADcp3uG6FodA5EvYaGdnm++NfclRxHdt8H9sBqdm8yk1a898TWYqOugeOBI5JMFNwonyCvsJvQ+cw4yehA5gJmL9kF+fX3wi8InSUJClcrOtyR3Hm3iNjPmjuspxrH/kmTfYmazbyLZ9zJzw9UnLMotLALEW+T3Nd/Z7tq4UTQocwE2MNuNF1DU914pcCk0NHSZRys3f+eCrTrtnqz84fepfz/htJD+832SPK9bFzRz+9u9GWlfq3d0Sngc6lid7rRFgar9i+wHlT14fOYiamaV6UrSzqHjxGlf8OnSMNIvxSVf/Hez/Eto/dQ3nmOsrDbazhVU7jgiIzBTpD5zR1NYpyoUO+O9rx1PWU37d6oz8tDf2LE38kKnOAZCdphXe/j3QvFhT/FjqImThrwE3CdQ+cg8qnQudIWcyGR7AmdqOWaSbrgLsEnlCIgNcCyU5Vy461Xt3+9OZvCB3EJKMtdACTDL9ih89FU1a9WWG/0FlSFGHN12ysHXhDcw9K30DgeGu+zcXugm4W501dH0c6E7g/dBRjTMJEfhBXC/8VOoZJljXgZrKg+Dev7nBgbegoxphkCPzKP7XmE6FzmORZA242vfkbED4XOoYxJhF/i9UdztkH2ofqJmQNuAn5SuFclO+EzmGMmZBR7+VIevN/DR3EpMMacJPyI2s/I/Dr0DmMMeP2efo6fxk6hEmPPYbUzE65anc32nYj8JLQUYwxNRD5ia90HhU6hkmXXQE3szOm3+edzABsYo4xjeN3fvJTc0KHMOmzBtzsejqvQ6QUOoYxZkxWeNEZL5juZZqSNeAW4CudZyLyg9A5jDFb5J3oh6gU7wodxNSHNeAW4ddO/qTA8tA5jDGbo/NHK8UrQ6cw9WM3YbWSEwdf6dq4Edg5dBRjzLMULtFq52EgrTBV0zzNroBbyaLCPU50Nhs2NTDGZMOtmlt7jDXf1mMNuMWMVooDqJwaOocxBoAnvPoZlA98PHQQU3+2BN2SVFxp6KfAEaGTGNPCvHg9JO4r/jx0EBOGXQG3JFGfcx8DbgmdxJjWpadb821t1oBbVTn/pHc6A1gVOooxrUbhMp+79iuhc5iwbAm6xUWlwfcpXIp9GDOmXu7wa907OCv/WOggJix7021xcbVwGYh9EjemPp70yKHWfA1YAzaAzy05XQX7LsqYdKkIH6PaafdeGMCWoM0zuq7dzsnaXwFvDB3FmKYk2uMrxZNDxzDZYVfAZoPefZ7wzs0A7HlEYxKmyIC/c4U9f282Yg3YPKsnf6sIxwA2kceYpAj36KjM5sKZNoHObMQasNlIXClcgurC0DmMaRJrPHIYi/KPhA5isscasHkB33Ftt6rYrizGTJAIn6TSabuQmU2ym7DMps29ckfXPuk3wB6hoxjToM7y1cLc0CFMdtkVsNm0M9+zwiMzgNWhoxjTaES5zuceLYXOYbLNroDNFkVdAx9SkR+HzmFM49AHfdS+Fwv2ezB0EpNtdgVstijuLf4EODt0DmMaxFqv8gFrvmYsrAGbrfIrtz9RYSh0DmMyTkX1E/QWfh06iGkM1oDN1p03db3m1h4K/F/oKMZklsopcW/xB6FjmMZh3wGbseu6ejcn0SDwhtBRjMmYhb5amBc6hGksdgVsxq73gAe8tO8twtLQUYzJCEU43ZqvGQ+7Aja1m7ss5yaNfB3huNBRjAlohQjHxZXCJaGDmMZkDdiMW9Q9eKgq3wZ2CZ3FmHpS6Nc2PsoZhftDZzGNyxqwmZjy8IvcGn8SSheQCx3HmJTdIcIpcaXzIhDbtMRMiDVgk4xTBl/uRvlP4Dhg19BxjEmSINcC34pXvvhCzpu6PnQe0xysAZtklRe3R2t3Lqr6g1B5DzZL2jSm9SLcoPALL3oZPcU/hg5kmo81YJOu7qVTiNe+OYrcaxU/BdgeL+2hYxnzPE8Aq8Tpw7G6m1n54tvtStcYY4wxxhhjjDHGGGOMMcYYY4wxxhhjjDHGGGOMMcYYY4wxxhhjjDHGGGOMMcYYY4wxxhhjjDHGGGOMMcYYY4wxxhhjjDHGGGOMMcYYY4wxxhhjjDHGGGOMMcYYY4wxxhhjjDHGGGOMMcYYY4wxxhhjjDHGGGOMMcYYY4wxxhhjjDHGGGOMMcYYY4wxxhhjjDHGGGOMMcYYY4wxxhhjjDHGGGOMMcYYY4wxxhhjjDHGGGOMMcYY0wT+P8S0SeNteIUIAAAAAElFTkSuQmCC;" vertex="1" parent="1">
          <mxGeometry x="480" y="335" width="190" height="190" as="geometry" />
        </mxCell>
      </root>
    </mxGraphModel>
  </diagram>
</mxfile>
